<?xml version="1.0" standalone="no"?><!DOCTYPE svg PUBLIC "-//W3C//DTD SVG 1.1//EN" "http://www.w3.org/Graphics/SVG/1.1/DTD/svg11.dtd"><svg t="1663639583280" class="icon" viewBox="0 0 1024 1024" version="1.1" xmlns="http://www.w3.org/2000/svg" p-id="31022" data-spm-anchor-id="a313x.7781069.0.i11" xmlns:xlink="http://www.w3.org/1999/xlink" width="200" height="200"><path d="M510.196537 1023.796219c-280.917333 0-509.452736-228.535403-509.452736-509.452736s228.535403-509.452736 509.452736-509.452737 509.452736 228.535403 509.452737 509.452737-228.535403 509.452736-509.452737 509.452736" fill="#1afa29" p-id="31023" data-spm-anchor-id="a313x.7781069.0.i7" class=""></path><path d="M510.196537 36.089632c-263.70802 0-478.248756 214.545831-478.248756 478.248756 0 263.70802 214.540736 478.253851 478.248756 478.253851s478.248756-214.545831 478.248757-478.253851c0-263.702925-214.540736-478.248756-478.248757-478.248756" fill="#FFFFFF" p-id="31024"></path><path d="M334.669692 473.857274L254.216915 393.399403a34.933174 34.933174 0 0 1 0-49.391443L467.968 130.267065c23.322746-23.322746 61.134328-23.322746 84.457075 0l217.312159 217.40386a34.933174 34.933174 0 0 1-0.015284 49.411821L689.605413 477.102488c-8.614846 8.61994-22.68593 8.61994-31.407761 0l-117.123184-117.123185c-16.801751-16.796657-44.220498-16.903642-61.032438 0l-113.964577 113.872876c-8.609751 8.711642-22.691025 8.711642-31.407761 0" fill="#2FAFD7" p-id="31025" data-spm-anchor-id="a313x.7781069.0.i10" class=""></path><path d="M881.623244 564.927045l-329.198169 329.305154c-23.322746 23.317652-61.134328 23.317652-84.457075 0l-329.198169-329.305154a59.590687 59.590687 0 0 1 0-84.35009l51.836816-51.836816a34.087483 34.087483 0 0 1 48.214607 0l81.038646 81.038647c16.806846 16.806846 44.225592 16.806846 61.134329 0l113.867781-113.969672c8.609751-8.614846 22.68593-8.614846 31.407761 0l117.11809 117.11809a42.676856 42.676856 0 0 0 30.567164 12.71594 42.839881 42.839881 0 0 0 30.567164-12.71594l80.620896-80.615801a34.087483 34.087483 0 0 1 48.214607 0l48.265552 48.265552a59.590687 59.590687 0 0 1 0 84.35009" fill="#1296db" p-id="31026" data-spm-anchor-id="a313x.7781069.0.i5" class=""></path></svg>