<?xml version="1.0" standalone="no"?><!DOCTYPE svg PUBLIC "-//W3C//DTD SVG 1.1//EN" "http://www.w3.org/Graphics/SVG/1.1/DTD/svg11.dtd"><svg t="1668482437124" class="icon" viewBox="0 0 1024 1024" version="1.1" xmlns="http://www.w3.org/2000/svg" p-id="6237" width="200" height="200" xmlns:xlink="http://www.w3.org/1999/xlink"><path d="M928.033333 591.146667A85.006667 85.006667 0 0 1 874.666667 512v-0.666667a84.993333 84.993333 0 0 1 53.233333-79.226666c25.666667-10.433333 39.013333-39.333333 30.373333-65.813334a468.593333 468.593333 0 0 0-28.486666-68.34A53.333333 53.333333 0 0 0 861.54 273.333333a85.373333 85.373333 0 0 1-111.88-111.833333c10.766667-25.506667-0.206667-55.373333-24.98-68a467.686667 467.686667 0 0 0-68.38-28.22c-26.5-8.553333-55.366667 4.88-65.713333 30.58A85.013333 85.013333 0 0 1 511.54 149.333333h-0.14a85.04 85.04 0 0 1-79.113333-53.286666c-10.406667-25.666667-39.293333-39.013333-65.753334-30.393334a467.12 467.12 0 0 0-68.333333 28.44c-24.74 12.666667-35.633333 42.573333-24.8 68.053334a85.333333 85.333333 0 0 1-78.52 118.753333 84.973333 84.973333 0 0 1-33.02-6.62 53.446667 53.446667 0 0 0-38.893333-1.013333 52.886667 52.886667 0 0 0-29.333334 25.82A468.933333 468.933333 0 0 0 65.333333 367.5c-8.56 26.493333 4.86 55.333333 30.553334 65.726667a85.333333 85.333333 0 0 1 0.133333 158.286666c-25.673333 10.406667-39.04 39.333333-30.426667 65.786667A467.7 467.7 0 0 0 94 725.613333a53.48 53.48 0 0 0 47.54 29 52.36 52.36 0 0 0 20.5-4.166666 85.333333 85.333333 0 0 1 112 111.84c-10.793333 25.5 0.16 55.373333 24.92 68A467.833333 467.833333 0 0 0 367.333333 958.593333a52.986667 52.986667 0 0 0 16.353334 2.586667c21.16 0 41.133333-12.666667 49.386666-33.106667A85.006667 85.006667 0 0 1 512.16 874.666667h0.04a85.02 85.02 0 0 1 79.133333 53.333333c10.393333 25.686667 39.28 39.073333 65.766667 30.466667a468.153333 468.153333 0 0 0 68.326667-28.366667c24.753333-12.666667 35.673333-42.54 24.86-68.033333a85.006667 85.006667 0 0 1 18.213333-93.68l0.28-0.28a85.013333 85.013333 0 0 1 93.4-18c25.493333 10.8 55.333333-0.133333 68-24.893334a468 468 0 0 0 28.326667-68.333333c8.613333-26.466667-4.78-55.353333-30.473334-65.733333zM640 512c0 70.58-57.42 128-128 128s-128-57.42-128-128 57.42-128 128-128 128 57.42 128 128z" fill="#202B34" p-id="6238"></path></svg>