<?xml version="1.0" standalone="no"?><!DOCTYPE svg PUBLIC "-//W3C//DTD SVG 1.1//EN" "http://www.w3.org/Graphics/SVG/1.1/DTD/svg11.dtd"><svg t="1668478024242" class="icon" viewBox="0 0 1024 1024" version="1.1" xmlns="http://www.w3.org/2000/svg" p-id="3121" xmlns:xlink="http://www.w3.org/1999/xlink" width="250" height="250"><path d="M896 256H384c-23.6 0-42.7-19.1-42.7-42.7s19.1-42.7 42.7-42.7h512c23.6 0 42.7 19.1 42.7 42.7S919.6 256 896 256zM896 853.3H384c-23.6 0-42.7-19.1-42.7-42.7S360.4 768 384 768h512c23.6 0 42.7 19.1 42.7 42.7s-19.1 42.6-42.7 42.6zM896 554.7H384c-23.6 0-42.7-19.1-42.7-42.7s19.1-42.7 42.7-42.7h512c23.6 0 42.7 19.1 42.7 42.7s-19.1 42.7-42.7 42.7zM213.3 256H128c-23.6 0-42.7-19.1-42.7-42.7s19.1-42.7 42.7-42.7h85.3c23.6 0 42.7 19.1 42.7 42.7S236.9 256 213.3 256zM213.3 853.3H128c-23.6 0-42.7-19.1-42.7-42.7S104.4 768 128 768h85.3c23.6 0 42.7 19.1 42.7 42.7s-19.1 42.6-42.7 42.6zM213.3 554.7H128c-23.6 0-42.7-19.1-42.7-42.7s19.1-42.7 42.7-42.7h85.3c23.6 0 42.7 19.1 42.7 42.7s-19.1 42.7-42.7 42.7z" p-id="3122" fill="#ffffff"></path></svg>