<?xml version="1.0" standalone="no"?><!DOCTYPE svg PUBLIC "-//W3C//DTD SVG 1.1//EN" "http://www.w3.org/Graphics/SVG/1.1/DTD/svg11.dtd"><svg t="1668477765177" class="icon" viewBox="0 0 1024 1024" version="1.1" xmlns="http://www.w3.org/2000/svg" p-id="2941" xmlns:xlink="http://www.w3.org/1999/xlink" width="250" height="250"><path d="M402.252035 0.010956H73.147904A71.939693 71.939693 0 0 0 0.010239 70.660527v317.728526a71.939693 71.939693 0 0 0 73.137665 70.649571h329.11437a71.939693 71.939693 0 0 0 73.137665-70.649571V70.629809A71.929454 71.929454 0 0 0 402.252035 0.010956z m548.517125 0H621.654789a71.939693 71.939693 0 0 0-73.137664 70.649571v317.728526a71.939693 71.939693 0 0 0 73.137664 70.649571h329.114371a71.939693 71.939693 0 0 0 73.137664-70.649571V70.629809A71.929454 71.929454 0 0 0 950.76916 0.010956zM402.252035 529.616522H73.147904a71.939693 71.939693 0 0 0-73.137665 70.649571v353.07379a71.939693 71.939693 0 0 0 73.137665 70.649571h329.11437a71.939693 71.939693 0 0 0 73.137665-70.649571V600.235375a71.929454 71.929454 0 0 0-73.147904-70.618853z m548.517125 0H621.654789a71.939693 71.939693 0 0 0-73.137664 70.649571v353.07379a71.939693 71.939693 0 0 0 73.137664 70.649571h329.114371a71.929454 71.929454 0 0 0 73.137664-70.649571V600.235375a71.929454 71.929454 0 0 0-73.137664-70.618853z" fill="#ffffff" p-id="2942"></path></svg>