<?xml version="1.0" standalone="no"?><!DOCTYPE svg PUBLIC "-//W3C//DTD SVG 1.1//EN" "http://www.w3.org/Graphics/SVG/1.1/DTD/svg11.dtd"><svg t="1668419877879" class="icon" viewBox="0 0 1024 1024" version="1.1" xmlns="http://www.w3.org/2000/svg" p-id="14182" width="250" height="250" xmlns:xlink="http://www.w3.org/1999/xlink"><path d="M945.08544 366.6432l-425.97376-183.1936a20.5312 20.5312 0 0 0-8.12544-1.6896c-2.7648 0-5.52448 0.5632-8.14592 1.6896L76.87168 366.6432c-8.98048 3.84512-14.92992 13.65504-14.92992 24.59136 0 10.9568 5.94944 20.74112 14.92992 24.60672L502.8352 599.04a20.29056 20.29056 0 0 0 16.27136 0l331.1872-142.43328v145.7152c-17.75104 9.40032-30.08512 29.8496-30.08512 53.62688 0 23.7824 12.33408 44.22656 30.08512 53.62688v50.83136h43.6224v-50.82112c17.76128-9.40032 30.1056-29.8496 30.1056-53.63712s-12.34432-44.2368-30.1056-53.63712V437.84704l51.16416-22.00576c8.97536-3.8656 14.9248-13.65504 14.9248-24.60672 0-10.93632-5.94944-20.74624-14.9248-24.59136z m-434.0992 269.16352a47.96928 47.96928 0 0 1-19.03104-3.95776L226.4064 517.632v157.70112c0 129.16224 193.65888 167.936 254.208 167.936h60.69248c45.35808 0 254.22848-38.77376 254.22848-167.936v-157.696l-265.55904 114.21184a47.76448 47.76448 0 0 1-18.9952 3.95776z" fill="#ffffff" p-id="14183"></path></svg>