<?xml version="1.0" standalone="no"?><!DOCTYPE svg PUBLIC "-//W3C//DTD SVG 1.1//EN" "http://www.w3.org/Graphics/SVG/1.1/DTD/svg11.dtd"><svg t="1668419087065" class="icon" viewBox="0 0 1024 1024" version="1.1" xmlns="http://www.w3.org/2000/svg" p-id="3509" xmlns:xlink="http://www.w3.org/1999/xlink" width="200" height="200"><path d="M658.410667 533.333333a42.666667 42.666667 0 1 1-0.021334-85.312 42.666667 42.666667 0 0 1 0 85.312z m-298.666667 0a42.666667 42.666667 0 1 1-0.021333-85.312 42.666667 42.666667 0 0 1 0 85.312z m0.938667-251.392c0-85.162667 66.773333-153.941333 148.864-153.941333 82.069333 0 148.864 68.778667 148.864 153.941333v38.741334L360.682667 320v-38.058667z m556.714666 100.352c-2.474667-34.496-32.277333-62.293333-66.986666-62.293333h-149.333334v-38.058667C701.077333 173.482667 615.466667 85.333333 509.546667 85.333333s-191.530667 88.149333-191.530667 196.608V320H167.744c-34.837333 0-64.512 27.626667-66.986667 62.293333L64.170667 894.656A60.501333 60.501333 0 0 0 125.013333 960h768.128a60.373333 60.373333 0 0 0 60.842667-65.344L917.397333 382.293333z" fill="#ffffff" p-id="3510"></path></svg>