<?xml version="1.0" standalone="no"?><!DOCTYPE svg PUBLIC "-//W3C//DTD SVG 1.1//EN" "http://www.w3.org/Graphics/SVG/1.1/DTD/svg11.dtd"><svg t="1668477690799" class="icon" viewBox="0 0 1024 1024" version="1.1" xmlns="http://www.w3.org/2000/svg" p-id="2581" xmlns:xlink="http://www.w3.org/1999/xlink" width="250" height="250"><path d="M960.4 686.1c0 6.8-5.5 12.3-12.3 12.3H808.3c-26.9-65.1-75-119.3-135.7-154 29.4-19.6 64.7-31 102.6-31 96.7 0 176 74.1 184.4 168.5 0.5 1.3 0.8 2.7 0.8 4.2zM775.2 494.9c-51.3 0-92.9-41.6-92.9-92.8s41.6-92.8 92.9-92.8c51.3 0 92.9 41.6 92.9 92.8s-41.6 92.8-92.9 92.8z m-260.1-4.3c-78.6 0-142.4-63.8-142.4-142.4 0-78.6 63.8-142.4 142.4-142.4s142.4 63.8 142.4 142.4c0 78.6-63.7 142.4-142.4 142.4zM222.8 698.5H76.5c-6.8 0-12.3-5.5-12.3-12.3 0-1.5 0.3-2.9 0.7-4.2 8.4-94.4 87.7-168.5 184.4-168.5 39.3 0 75.7 12.2 105.7 33.1-59 34.7-105.7 88-132.2 151.9z m26.5-203.6c-51.3 0-92.9-41.6-92.9-92.8s41.6-92.8 92.9-92.8c51.3 0 92.9 41.6 92.9 92.8s-41.6 92.8-92.9 92.8z m-18 324.1z m0.4-15.5c6.7-123.7 92.5-226.3 207.8-258.1l68.9 68.9c3.7 3.7 9.7 3.7 13.4 0l68.9-68.9C706 577.2 791.9 679.8 798.5 803.5c0.3 1 0.4 2.1 0.4 3.2 0 6.8-5.5 12.3-12.3 12.3h-543c-6.8 0-12.3-5.5-12.3-12.3 0-1.1 0.1-2.2 0.4-3.2z" fill="#ffffff" p-id="2582"></path></svg>