<?xml version="1.0" standalone="no"?><!DOCTYPE svg PUBLIC "-//W3C//DTD SVG 1.1//EN" "http://www.w3.org/Graphics/SVG/1.1/DTD/svg11.dtd"><svg t="1668478139931" class="icon" viewBox="0 0 1024 1024" version="1.1" xmlns="http://www.w3.org/2000/svg" p-id="3800" xmlns:xlink="http://www.w3.org/1999/xlink" width="250" height="250"><path d="M768 791.272727H139.636364c-11.636364 0-23.272727 9.309091-23.272728 23.272728s11.636364 23.272727 23.272728 23.272727h628.363636c11.636364 0 23.272727-9.309091 23.272727-23.272727s-11.636364-23.272727-23.272727-23.272728zM139.636364 349.090909h279.272727c13.963636 0 23.272727-9.309091 23.272727-23.272727V162.909091c0-13.963636-9.309091-23.272727-23.272727-23.272727H139.636364c-13.963636 0-23.272727 9.309091-23.272728 23.272727v162.909091c0 13.963636 9.309091 23.272727 23.272728 23.272727z m23.272727-151.272727c0-6.981818 4.654545-11.636364 11.636364-11.636364h209.454545c6.981818 0 11.636364 4.654545 11.636364 11.636364v93.090909c0 6.981818-4.654545 11.636364-11.636364 11.636364h-209.454545c-6.981818 0-11.636364-4.654545-11.636364-11.636364v-93.090909zM768 465.454545H139.636364c-11.636364 0-23.272727 9.309091-23.272728 23.272728s11.636364 23.272727 23.272728 23.272727h628.363636c11.636364 0 23.272727-9.309091 23.272727-23.272727s-11.636364-23.272727-23.272727-23.272728zM1000.727273 186.181818c-13.963636 0-23.272727 9.309091-23.272728 23.272727v719.127273c0 27.927273-20.945455 48.872727-48.872727 48.872727h-34.909091c9.309091-13.963636 13.963636-30.254545 13.963637-48.872727V95.418182C907.636364 41.890909 865.745455 0 812.218182 0H95.418182C41.890909 0 0 41.890909 0 95.418182v830.836363C0 982.109091 41.890909 1024 95.418182 1024H928.581818c53.527273 0 95.418182-41.890909 95.418182-95.418182V209.454545c0-13.963636-9.309091-23.272727-23.272727-23.272727z m-139.636364 742.4c0 27.927273-20.945455 48.872727-48.872727 48.872727H95.418182C67.490909 977.454545 46.545455 954.181818 46.545455 928.581818V95.418182C46.545455 69.818182 67.490909 46.545455 95.418182 46.545455h716.8C840.145455 46.545455 861.090909 69.818182 861.090909 95.418182v833.163636zM768 232.727273H512c-11.636364 0-23.272727 9.309091-23.272727 23.272727s11.636364 23.272727 23.272727 23.272727h256c11.636364 0 23.272727-9.309091 23.272727-23.272727s-11.636364-23.272727-23.272727-23.272727z m0 395.636363H139.636364c-11.636364 0-23.272727 9.309091-23.272728 23.272728s11.636364 23.272727 23.272728 23.272727h628.363636c11.636364 0 23.272727-9.309091 23.272727-23.272727s-11.636364-23.272727-23.272727-23.272728z" fill="#ffffff" p-id="3801"></path></svg>