<?xml version="1.0" standalone="no"?><!DOCTYPE svg PUBLIC "-//W3C//DTD SVG 1.1//EN" "http://www.w3.org/Graphics/SVG/1.1/DTD/svg11.dtd"><svg t="1668419591936" class="icon" viewBox="0 0 1024 1024" version="1.1" xmlns="http://www.w3.org/2000/svg" p-id="10925" xmlns:xlink="http://www.w3.org/1999/xlink" width="200" height="200"><path d="M960 213.333333a21.333333 21.333333 0 0 0-21.333333 21.333334v640a21.333333 21.333333 0 0 1-42.666667 0V96a53.393333 53.393333 0 0 0-53.333333-53.333333H138.666667a53.393333 53.393333 0 0 0-53.333334 53.333333v832a53.393333 53.393333 0 0 0 53.333334 53.333333h757.333333a85.426667 85.426667 0 0 0 85.333333-85.333333V234.666667a21.333333 21.333333 0 0 0-21.333333-21.333334zM256 234.666667a21.333333 21.333333 0 0 1 38-13.333334l132.666667 165.853334V234.666667a21.333333 21.333333 0 0 1 42.666666 0v213.333333a21.333333 21.333333 0 0 1-38 13.333333L298.666667 295.48V448a21.333333 21.333333 0 0 1-42.666667 0z m448 576H277.333333a21.333333 21.333333 0 0 1 0-42.666667h426.666667a21.333333 21.333333 0 0 1 0 42.666667z m0-170.666667H277.333333a21.333333 21.333333 0 0 1 0-42.666667h426.666667a21.333333 21.333333 0 0 1 0 42.666667z m0-213.333333H576a21.333333 21.333333 0 0 1 0-42.666667h128a21.333333 21.333333 0 0 1 0 42.666667z m0-170.666667H576a21.333333 21.333333 0 0 1 0-42.666667h128a21.333333 21.333333 0 0 1 0 42.666667z" fill="#ffffff" p-id="10926"></path></svg>