<?xml version="1.0" standalone="no"?><!DOCTYPE svg PUBLIC "-//W3C//DTD SVG 1.1//EN" "http://www.w3.org/Graphics/SVG/1.1/DTD/svg11.dtd"><svg t="1668477607846" class="icon" viewBox="0 0 1024 1024" version="1.1" xmlns="http://www.w3.org/2000/svg" p-id="2038" xmlns:xlink="http://www.w3.org/1999/xlink" width="250" height="250"><path d="M867.126867 516.953333l-416-416A52.986667 52.986667 0 0 0 413.413533 85.333333H53.333533a53.393333 53.393333 0 0 0-53.333333 53.333334v360.08a52.986667 52.986667 0 0 0 15.62 37.713333l416 416a53.333333 53.333333 0 0 0 75.426667 0l360.08-360.08a53.4 53.4 0 0 0 0-75.426667zM341.333533 341.333333a85.333333 85.333333 0 1 1-85.333333-85.333333 85.426667 85.426667 0 0 1 85.333333 85.333333z m653.793334 251.046667l-382.706667 382.706667a21.333333 21.333333 0 0 1-30.173333-30.173334l382.706666-382.706666a10.666667 10.666667 0 0 0 0-15.08L539.5802 121.753333a21.333333 21.333333 0 0 1 30.173333-30.173333l425.373334 425.373333a53.4 53.4 0 0 1 0 75.426667z" fill="#ffffff" p-id="2039"></path></svg>