<?xml version="1.0" standalone="no"?><!DOCTYPE svg PUBLIC "-//W3C//DTD SVG 1.1//EN" "http://www.w3.org/Graphics/SVG/1.1/DTD/svg11.dtd"><svg  fill="#fff" t="1668417990581" class="icon" viewBox="0 0 1026 1024" version="1.1" xmlns="http://www.w3.org/2000/svg" p-id="2225" xmlns:xlink="http://www.w3.org/1999/xlink" width="200.390625" height="200"><path d="M1024.049119 459.508485c-67.652819-83.910085-226.247884-28.031427-416.117233 47.89994C418.186358 583.53115 197.297528 680.21005 5.060249 677.531034c1.248434 74.879408 50.830689 187.686636 92.692099 276.953729 139.037636 0 630.02609 0 768.942977 0C889.37179 683.509189 1043.108197 672.112628 1024.049119 459.508485z" p-id="2226"></path><path d="M642.570801 438.636109l-121.41528 4.672416-5.040806-36.68962 225.127364-3.301186c19.11843-6.03853 38.495756-11.707646 57.930387-16.943904l-30.022781-115.240651c-120.728642-24.858154-190.30937-24.418133-311.095317 1.372254L205.76948 415.900292l0.434905 35.511795-19.306718 79.546707-36.5658 76.867692L54.583153 632.246665l0.12382 14.826684C277.653671 626.14162 441.796078 518.558369 642.570801 438.636109zM759.862157 314.303382l5.358031 30.521131-256.833483 10.342556-5.170766-37.129642L759.862157 314.303382zM400.122957 361.211738l79.986729-42.23594-0.995677 42.048675-78.991052 36.877909L400.122957 361.211738zM400.122957 449.787076l78.117149-41.544185-0.939395 42.107003-77.177753 36.126802L400.122957 449.787076zM318.647317 404.378887l54.753021-29.091572 0 34.948977-54.753021 25.409716L318.647317 404.378887zM318.647317 492.774123l54.753021-29.091572 0 34.941813-54.753021 25.604144L318.647317 492.774123zM232.181013 452.718849l66.280566-37.751812 0 30.15274-66.280566 34.819017L232.181013 452.718849zM209.135134 541.113061l89.326445-37.563524 0 29.959336-89.326445 35.013445L209.135134 541.113061z" p-id="2227"></path></svg>